<?xml version="1.0" encoding="utf-8"?>
<!-- Generator: Adobe Illustrator 18.0.0, SVG Export Plug-In . SVG Version: 6.00 Build 0)  -->
<!DOCTYPE svg PUBLIC "-//W3C//DTD SVG 1.1//EN" "http://www.w3.org/Graphics/SVG/1.1/DTD/svg11.dtd">
<svg version="1.1" id="Layer_1" xmlns="http://www.w3.org/2000/svg" xmlns:xlink="http://www.w3.org/1999/xlink" x="0px" y="0px"
	 viewBox="0 0 432 432" enable-background="new 0 0 432 432" xml:space="preserve">
<path d="M135.3,267.7h148.8l0,0c68.6-1,87-59.7,87-94.5c0-87.5-71.1-158.6-158.6-158.6C125,14.7,53.9,85.8,53.9,173.3
	S125,331.9,212.5,331.9c40.1,0,53.1-4.8,66.7-9.9c2.9-1.1,5.8-2.2,9.1-3.2l2.4,3.6l6,1.2l21.8-14.2l-1.9-2.7l17-11.5l-11.2-16.6
	l-17,11.5l-1.5-2.2l-21.8,14.8l-1.1,5.5l2.1,3.1c-2.5,0.9-4.8,1.7-7,2.5c-13.5,5-25.1,9.3-63.7,9.3c-82.6,0-149.8-67.2-149.8-149.8
	c0-82.6,67.2-149.8,149.8-149.8s149.8,67.2,149.8,149.8c0,31.8-16.8,85.7-79.9,85.7l0,0H147.8L276.4,90.1v-8.8H152.3
	c-5.9,0-8-0.5-8-6.1V68h-9.1v10.1c0,10.1,5.1,12,16,12h112.6L135.3,258.9V267.7z M324.1,293l2.5,3.6l-4.1,2.8l-2.5-3.6L324.1,293z
	 M318.3,284.5l2.4,3.6l-4.1,2.8l-2.5-3.6L318.3,284.5z M315.9,293l1.6,2.4l-2,1.4l-1.6-2.4L315.9,293z"/>
<g>
	<text transform="matrix(1.0223 0 0 1 21.4184 372.9756)" font-family="'JuraLight'" font-size="41.6512">Zingler &amp;</text>
	<text transform="matrix(1.0223 0 0 1 98.4301 406.8086)" font-family="'JuraLight'" font-size="41.6512">Associates, Inc.</text>
</g>
</svg>
