<?xml version="1.0" encoding="utf-8"?>
<!-- Generator: Adobe Illustrator 18.0.0, SVG Export Plug-In . SVG Version: 6.00 Build 0)  -->
<!DOCTYPE svg PUBLIC "-//W3C//DTD SVG 1.1//EN" "http://www.w3.org/Graphics/SVG/1.1/DTD/svg11.dtd">
<svg version="1.1" id="Layer_1" xmlns="http://www.w3.org/2000/svg" xmlns:xlink="http://www.w3.org/1999/xlink" x="0px" y="0px"
	 viewBox="0 0 144 144" enable-background="new 0 0 144 144" xml:space="preserve">
<path d="M46,90.7h50l0,0c23.1-0.3,29.2-20.1,29.2-31.8c0-29.4-23.9-53.3-53.3-53.3c-29.4,0-53.3,23.9-53.3,53.3s23.9,53.3,53.3,53.3
	c13.5,0,17.8-1.6,22.4-3.3c1-0.4,2-0.7,3.1-1.1l0.8,1.2l2,0.4l7.3-4.8l-0.6-0.9l5.7-3.9l-3.8-5.6l-5.7,3.9l-0.5-0.7l-7.3,5l-0.4,1.9
	l0.7,1.1c-0.8,0.3-1.6,0.6-2.4,0.9c-4.5,1.7-8.4,3.1-21.4,3.1c-27.8,0-50.4-22.6-50.4-50.4C21.6,31.1,44.2,8.5,72,8.5
	s50.4,22.6,50.4,50.4c0,10.7-5.7,28.8-26.9,28.8l0,0H50.3L93.5,31V28H51.8c-2,0-2.7-0.2-2.7-2.1v-2.4h-3v3.4c0,3.4,1.7,4,5.4,4h37.9
	L46,87.7V90.7z M109.5,99.2l0.8,1.2l-1.4,0.9l-0.8-1.2L109.5,99.2z M107.6,96.3l0.8,1.2l-1.4,0.9l-0.8-1.2L107.6,96.3z M106.8,99.2
	l0.5,0.8l-0.7,0.5l-0.5-0.8L106.8,99.2z"/>
<g>
	<text transform="matrix(1.0223 0 0 1 7.7749 126.0337)" font-family="'JuraLight'" font-size="14">Zingler &amp;</text>
	<text transform="matrix(1.0223 0 0 1 33.6606 137.4062)" font-family="'JuraLight'" font-size="14">Associates, Inc.</text>
</g>
</svg>
